<svg xmlns="http://www.w3.org/2000/svg" xmlns:xlink="http://www.w3.org/1999/xlink" width="500" zoomAndPan="magnify" viewBox="0 0 375 374.999991" height="500" preserveAspectRatio="xMidYMid meet" version="1.0"><defs><clipPath id="5b6945a947"><path d="M 37.5 101.394531 L 141.910156 101.394531 L 141.910156 192.617188 L 37.5 192.617188 Z M 37.5 101.394531 " clip-rule="nonzero"/></clipPath><clipPath id="fb43b67f87"><path d="M 89.628906 101.394531 L 141.757812 192.617188 L 37.5 192.617188 Z M 89.628906 101.394531 " clip-rule="nonzero"/></clipPath><clipPath id="cd8094e0bb"><path d="M 49.132812 192.617188 L 130.125 192.617188 L 130.125 273.605469 L 49.132812 273.605469 Z M 49.132812 192.617188 " clip-rule="nonzero"/></clipPath><clipPath id="f8958f4c31"><path d="M 89.628906 192.617188 C 67.265625 192.617188 49.132812 210.746094 49.132812 233.113281 C 49.132812 255.476562 67.265625 273.605469 89.628906 273.605469 C 111.992188 273.605469 130.125 255.476562 130.125 233.113281 C 130.125 210.746094 111.992188 192.617188 89.628906 192.617188 Z M 89.628906 192.617188 " clip-rule="nonzero"/></clipPath><clipPath id="1caf8d33b2"><path d="M 49.132812 192.617188 L 130.121094 192.617188 L 130.121094 273.605469 L 49.132812 273.605469 Z M 49.132812 192.617188 " clip-rule="nonzero"/></clipPath><clipPath id="46d720cd02"><path d="M 89.628906 192.617188 C 67.261719 192.617188 49.132812 210.746094 49.132812 233.113281 C 49.132812 255.476562 67.261719 273.605469 89.628906 273.605469 C 111.992188 273.605469 130.121094 255.476562 130.121094 233.113281 C 130.121094 210.746094 111.992188 192.617188 89.628906 192.617188 Z M 89.628906 192.617188 " clip-rule="nonzero"/></clipPath><clipPath id="a78775d834"><path d="M 141.757812 101.394531 L 233.257812 101.394531 L 233.257812 192.894531 L 141.757812 192.894531 Z M 141.757812 101.394531 " clip-rule="nonzero"/></clipPath><clipPath id="6c985e9093"><path d="M 187.675781 101.394531 C 162.316406 101.394531 141.757812 121.953125 141.757812 147.3125 C 141.757812 172.671875 162.316406 193.234375 187.675781 193.234375 C 213.039062 193.234375 233.597656 172.671875 233.597656 147.3125 C 233.597656 121.953125 213.039062 101.394531 187.675781 101.394531 Z M 187.675781 101.394531 " clip-rule="nonzero"/></clipPath><clipPath id="475990ff95"><path d="M 142.097656 192.722656 L 233.59375 192.722656 L 233.59375 272.972656 L 142.097656 272.972656 Z M 142.097656 192.722656 " clip-rule="nonzero"/></clipPath><clipPath id="45b59cb4f5"><path d="M 187.675781 272.972656 L 141.757812 192.617188 L 233.59375 192.617188 Z M 187.675781 272.972656 " clip-rule="nonzero"/></clipPath><clipPath id="f3066c680c"><path d="M 245.652344 185.539062 L 337.5 185.539062 L 337.5 199.695312 L 245.652344 199.695312 Z M 245.652344 185.539062 " clip-rule="nonzero"/></clipPath></defs><g clip-path="url(#5b6945a947)"><g clip-path="url(#fb43b67f87)"><path fill="#2273f3" d="M 37.5 101.394531 L 141.910156 101.394531 L 141.910156 192.617188 L 37.5 192.617188 Z M 37.5 101.394531 " fill-opacity="1" fill-rule="nonzero"/></g></g><g clip-path="url(#cd8094e0bb)"><g clip-path="url(#f8958f4c31)"><path fill="#fca311" d="M 49.132812 192.617188 L 130.125 192.617188 L 130.125 273.605469 L 49.132812 273.605469 Z M 49.132812 192.617188 " fill-opacity="1" fill-rule="nonzero"/></g></g><g clip-path="url(#1caf8d33b2)"><g clip-path="url(#46d720cd02)"><path stroke-linecap="butt" transform="matrix(0.75, 0, 0, 0.75, 49.133728, 192.617654)" fill="none" stroke-linejoin="miter" d="M 53.993572 -0.000621669 C 24.170655 -0.000621669 -0.00122023 24.171253 -0.00122023 53.99417 C -0.00122023 83.811878 24.170655 107.983754 53.993572 107.983754 C 83.81128 107.983754 107.983155 83.811878 107.983155 53.99417 C 107.983155 24.171253 83.81128 -0.000621669 53.993572 -0.000621669 Z M 53.993572 -0.000621669 " stroke="#fca311" stroke-width="8" stroke-opacity="1" stroke-miterlimit="4"/></g></g><g clip-path="url(#a78775d834)"><g clip-path="url(#6c985e9093)"><path stroke-linecap="butt" transform="matrix(0.75, 0, 0, 0.75, 141.757013, 101.392772)" fill="none" stroke-linejoin="miter" d="M 61.225029 0.00234601 C 27.412526 0.00234601 0.00106628 27.413806 0.00106628 61.226308 C 0.00106628 95.038811 27.412526 122.455479 61.225029 122.455479 C 95.042739 122.455479 122.454199 95.038811 122.454199 61.226308 C 122.454199 27.413806 95.042739 0.00234601 61.225029 0.00234601 Z M 61.225029 0.00234601 " stroke="#14213d" stroke-width="2" stroke-opacity="1" stroke-miterlimit="4"/></g></g><g clip-path="url(#475990ff95)"><g clip-path="url(#45b59cb4f5)"><path stroke-linecap="butt" transform="matrix(-0.75, 0, 0, -0.75, 233.594329, 272.973116)" fill="none" stroke-linejoin="miter" d="M 61.224738 0.000613633 L 122.448705 107.141253 L 0.000772214 107.141253 Z M 61.224738 0.000613633 " stroke="#000000" stroke-width="2" stroke-opacity="1" stroke-miterlimit="4"/></g></g><g clip-path="url(#f3066c680c)"><path fill="#fca311" d="M 245.652344 185.539062 L 337.484375 185.539062 L 337.484375 199.695312 L 245.652344 199.695312 Z M 245.652344 185.539062 " fill-opacity="1" fill-rule="nonzero"/></g></svg>